<?xml version="1.0" encoding="UTF-8" standalone="no"?>
<!-- Created with Inkscape (http://www.inkscape.org/) -->

<svg
   xmlns:dc="http://purl.org/dc/elements/1.1/"
   xmlns:cc="http://creativecommons.org/ns#"
   xmlns:rdf="http://www.w3.org/1999/02/22-rdf-syntax-ns#"
   xmlns:svg="http://www.w3.org/2000/svg"
   xmlns="http://www.w3.org/2000/svg"
   xmlns:sodipodi="http://sodipodi.sourceforge.net/DTD/sodipodi-0.dtd"
   xmlns:inkscape="http://www.inkscape.org/namespaces/inkscape"
   width="210mm"
   height="297mm"
   viewBox="0 0 744.09448819 1052.3622047"
   id="svg4217"
   version="1.1"
   inkscape:version="0.92.1 r15371"
   sodipodi:docname="KLUGlug-Logoblack.svg">
  <defs
     id="defs4219">
    <clipPath
       clipPathUnits="userSpaceOnUse"
       id="clipPath6036">
      <rect
         style="opacity:1;fill:#1a1a1a;fill-opacity:1;stroke:none;stroke-width:2.0999999;stroke-linecap:butt;stroke-linejoin:miter;stroke-miterlimit:4;stroke-dasharray:none;stroke-dashoffset:0;stroke-opacity:1"
         id="rect6038"
         width="94.576401"
         height="101.58207"
         x="-810.56927"
         y="627.08948" />
    </clipPath>
  </defs>
  <sodipodi:namedview
     id="base"
     pagecolor="#ffffff"
     bordercolor="#666666"
     borderopacity="1.0"
     inkscape:pageopacity="0.0"
     inkscape:pageshadow="2"
     inkscape:zoom="0.52488385"
     inkscape:cx="-6.2729108"
     inkscape:cy="476.78799"
     inkscape:document-units="px"
     inkscape:current-layer="layer1"
     showgrid="false"
     inkscape:window-width="1366"
     inkscape:window-height="704"
     inkscape:window-x="0"
     inkscape:window-y="27"
     inkscape:window-maximized="1" />
  <metadata
     id="metadata4222">
    <rdf:RDF>
      <cc:Work
         rdf:about="">
        <dc:format>image/svg+xml</dc:format>
        <dc:type
           rdf:resource="http://purl.org/dc/dcmitype/StillImage" />
        <dc:title></dc:title>
      </cc:Work>
    </rdf:RDF>
  </metadata>
  <g
     inkscape:label="Layer 1"
     inkscape:groupmode="layer"
     id="layer1">
    <rect
       style="opacity:1;fill:#f2f2f2;fill-opacity:1;stroke:none;stroke-width:1.09399998;stroke-linecap:round;stroke-linejoin:round;stroke-miterlimit:4;stroke-dasharray:none;stroke-dashoffset:0;stroke-opacity:1"
       id="rect4789"
       width="712.69403"
       height="1036.046"
       x="-905.40765"
       y="56.428783" />
    <g
       id="g4190"
       transform="matrix(0.6105571,0,0,0.6105571,-1897.9712,1283.611)">
      <g
         style="fill:#1a1a1a"
         transform="matrix(3.7678216,0,0,3.7678216,6248.8603,-3816.1475)"
         id="g3394">
        <path
           inkscape:connector-curvature="0"
           d="m -541.277,681.7999 -13.25,0.28125 -13.25,0.28125 -0.0625,4.75 c -0.0392,2.6125 0.18579,4.7845 0.5,4.8125 0.3142,0.028 3.4875,0.20273 7.0625,0.375 3.575,0.17227 6.8375,0.3628 7.25,0.4375 0.4125,0.0747 0.75,4.4 0.75,9.625 l 0,9.5 5.5,0 5.5,0 0,-15.03125 0,-15.03125 z m -181.03125,-2.9375 c -4.03392,0 -29.28714,2.10174 -29.71875,2.46875 -0.13177,0.11205 -0.50313,1.57815 -0.84375,3.28125 -0.6183,3.09148 -0.63385,3.10665 3.21875,2.625 2.12239,-0.26535 6.35,-0.0945 9.375,0.375 5.05679,0.78485 5.46799,1.05132 5.21875,3.3125 -0.57803,5.24406 -4.72852,16.44374 -8.28125,22.3125 -2.5774,4.25718 -3.38533,6.37654 -2.59375,6.90625 1.38329,0.92568 9.11772,-7.09809 14.5625,-15.125 4.26669,-6.2901 9.61553,-16.55974 11.65625,-22.34375 l 1.34375,-3.8125 -3.9375,0 z m 84.875,-15.09375 -5.65625,0.3125 -5.6875,0.28125 0.0312,15 c 0.0241,13.60675 0.24706,15.44362 2.34375,19.75 2.85092,5.85549 9.09096,11.35726 15.09375,13.28125 9.24171,2.9621 20.23722,-0.24847 26.5625,-7.75 4.86807,-5.77332 5.46875,-8.49657 5.46875,-25.25 l 0,-15.53125 -5.4375,0 -5.4375,0 -0.3125,15.4375 -0.3125,15.4375 -2.96875,3.09375 c -5.97822,6.23407 -14.12077,6.22983 -20.125,-0.0312 l -2.90625,-3.0625 -0.3125,-15.46875 -0.34375,-15.5 z m -67.84375,-1 0,15.4375 c 0,17.09202 0.6904,19.94923 6.25,26.28125 1.78467,2.03263 5.496,4.74878 8.25,6.03125 4.55196,2.11974 6.3867,2.33475 20.25,2.34375 l 15.25,0 0,-5.5 0,-5.5 -12.96875,0 c -14.46175,0 -19.14242,-1.19105 -22.53125,-5.78125 -1.72602,-2.33791 -2.0685,-4.77362 -2.5,-17.71875 l -0.5,-15 -5.75,-0.28125 -5.75,-0.3125 z m 164,-1.09375 -15.75,0.375 c -17.65409,0.44126 -20.85694,1.43647 -27.65625,8.4375 -11.97667,12.33199 -6.45554,34.04059 10.15625,39.96875 2.06362,0.73643 7.4625,1.3509 12,1.375 l 8.25,0.0312 0,-5.5 0,-5.5 -7.5625,0 c -8.42932,0 -12.19732,-1.40003 -15.25,-5.71875 -3.31917,-4.69572 -3.63265,-8.72614 -1.125,-13.90625 3.38438,-6.99119 7.16246,-8.31635 23.6875,-8.34375 l 13.25,-0.0312 0,-5.59375 0,-5.59375 z m -189.9375,-23.0625 c -4.44751,-0.11045 -7.08619,1.41581 -14.28125,6.9375 -4.95953,3.80609 -14.47737,13.60244 -24.5625,25.28125 l -3,3.5 -0.75,-7.9375 c -0.40796,-4.35357 -0.49732,-11.81158 -0.1875,-16.59375 0.55335,-8.5409 0.54547,-8.69178 -1.59375,-8.21875 -7.56759,1.67338 -19.86447,6.65777 -23.40625,9.5 -0.95952,0.77004 -0.94186,1.27688 0.0625,2.28125 0.70355,0.70354 6.14873,14.13316 12.125,29.875 5.97628,15.74184 11.37641,28.633 11.96875,28.625 3.52302,-0.0501 3.84065,-1.51209 2.625,-11.96875 -0.65321,-5.61856 -0.96866,-10.43758 -0.6875,-10.71875 0.28117,-0.28116 6.25698,4.03355 13.28125,9.59375 7.02428,5.56019 13.13029,10.09375 13.5625,10.09375 1.89183,0 0.18295,-2.9366 -9.21875,-15.9375 -5.50001,-7.60554 -10,-14.0415 -10,-14.3125 0,-1.87505 29.51028,-17.75 33,-17.75 1.24938,0 1.11261,2.14619 -0.59375,10.65625 -0.5254,2.62043 -0.27518,3.259 1.46875,3.8125 1.15276,0.36585 2.56222,0.37907 3.125,0.0312 3.1777,-1.96392 8.3054,-17.79221 9.46875,-29.25 0.56538,-5.56839 0.44714,-6.2373 -1.15625,-6.3125 -0.98981,-0.0464 -4.5125,-0.44863 -7.8125,-0.875 -1.30121,-0.16812 -2.41115,-0.28701 -3.4375,-0.3125 z"
           style="fill:#1a1a1a"
           id="path3296" />
      </g>
      <g
         inkscape:export-ydpi="51.5"
         inkscape:export-xdpi="51.5"
         inkscape:export-filename="/home/kishan/Documents/materialize/img/logo1.png"
         id="g8249"
         transform="matrix(1.3046782,0,0,1.3046782,5661.1256,-1922.8463)"
         style="fill:#1a1a1a;fill-opacity:1">
        <path
           sodipodi:nodetypes="ccssssszzzsc"
           inkscape:connector-curvature="0"
           id="path8251"
           d="m -1445.4545,409.66407 c 8.037,-23.3219 55.6599,-61.54351 75.4881,-78.83257 4.0237,-3.63747 12.2894,-4.66767 16.2443,-0.95555 11.92,11.18833 16.1793,13.85991 24.3664,10.51101 8.7011,-3.55911 8.8648,-11.05775 38.2219,-36.31076 8.4557,-7.27365 16.7004,-7.67818 27.5006,-4.8924 8.0707,2.08174 16.3464,13.33488 66.6207,9.67013 15.2756,-1.11351 -25.8202,16.08055 -55.4217,15.28875 -29.6014,-0.79181 -29.8654,-8.9708 -43.4773,-0.95556 -13.612,8.01525 -7.7006,31.71922 -23.8887,45.38846 -16.1881,13.66924 -36.1347,-15.2336 -45.8662,-15.28875 -19.6654,-0.11142 -71.2389,57.81514 -79.7881,56.37724 z"
           style="fill:#1a1a1a;fill-opacity:1;stroke:none" />
        <path
           style="fill:#1a1a1a;fill-opacity:1;stroke:none"
           d="m -1374.2976,436.86691 c 8.2936,-21.70808 57.4372,-57.28481 77.8987,-73.37751 4.1521,-3.38576 12.6818,-4.34467 16.763,-0.88942 12.3005,10.41411 16.6958,12.90082 25.1444,9.78367 8.979,-3.31283 9.1479,-10.29257 39.4424,-33.79812 8.7258,-6.77032 17.2337,-7.14687 28.3787,-4.55385 8.3285,1.93768 16.8684,12.41212 68.7482,9.00097 15.7633,-1.03646 -26.6448,14.9678 -57.1915,14.23079 -30.5467,-0.73702 -30.819,-8.35003 -44.8657,-0.88943 -14.0466,7.4606 -7.9465,29.5243 -24.6514,42.24766 -16.7051,12.72335 -37.2886,-14.17947 -47.3309,-14.2308 -20.2933,-0.10371 -73.5137,53.81443 -82.3359,52.47604 z"
           id="path8253"
           inkscape:connector-curvature="0"
           sodipodi:nodetypes="ccssssszzzsc" />
      </g>
      <g
         clip-path="url(#clipPath6036)"
         id="g6030"
         transform="matrix(3.7678216,0,0,3.7678216,6248.8603,-3776.5534)"
         style="fill:#1a1a1a">
        <path
           id="path6032"
           style="fill:#1a1a1a"
           d="m -541.277,671.29141 -13.25,0.28125 -13.25,0.28125 -0.0625,4.75 c -0.0392,2.6125 0.18579,4.7845 0.5,4.8125 0.3142,0.028 3.4875,0.20273 7.0625,0.375 3.575,0.17227 6.8375,0.3628 7.25,0.4375 0.4125,0.0747 0.75,4.4 0.75,9.625 l 0,9.5 5.5,0 5.5,0 0,-15.03125 0,-15.03125 z m -181.03125,-2.9375 c -4.03392,0 -29.28714,2.10174 -29.71875,2.46875 -0.13177,0.11205 -0.50313,1.57815 -0.84375,3.28125 -0.6183,3.09148 -0.63385,3.10665 3.21875,2.625 2.12239,-0.26535 6.35,-0.0945 9.375,0.375 5.05679,0.78485 5.46799,1.05132 5.21875,3.3125 -0.57803,5.24406 -4.72852,16.44374 -8.28125,22.3125 -2.5774,4.25718 -3.38533,6.37654 -2.59375,6.90625 1.38329,0.92568 9.11772,-7.09809 14.5625,-15.125 4.26669,-6.2901 9.61553,-16.55974 11.65625,-22.34375 l 1.34375,-3.8125 -3.9375,0 z m 84.875,-15.09375 -5.65625,0.3125 -5.6875,0.28125 0.0312,15 c 0.0241,13.60675 0.24706,15.44362 2.34375,19.75 2.85092,5.85549 9.09096,11.35726 15.09375,13.28125 9.24171,2.9621 20.23722,-0.24847 26.5625,-7.75 4.86807,-5.77332 5.46875,-8.49657 5.46875,-25.25 l 0,-15.53125 -5.4375,0 -5.4375,0 -0.3125,15.4375 -0.3125,15.4375 -2.96875,3.09375 c -5.97822,6.23407 -14.12077,6.22983 -20.125,-0.0312 l -2.90625,-3.0625 -0.3125,-15.46875 -0.34375,-15.5 z m -67.84375,-1 0,15.4375 c 0,17.09202 0.6904,19.94923 6.25,26.28125 1.78467,2.03263 5.496,4.74878 8.25,6.03125 4.55196,2.11974 6.3867,2.33475 20.25,2.34375 l 15.25,0 0,-5.5 0,-5.5 -12.96875,0 c -14.46175,0 -19.14242,-1.19105 -22.53125,-5.78125 -1.72602,-2.33791 -2.0685,-4.77362 -2.5,-17.71875 l -0.5,-15 -5.75,-0.28125 -5.75,-0.3125 z m 164,-1.09375 -15.75,0.375 c -17.65409,0.44126 -20.85694,1.43647 -27.65625,8.4375 -11.97667,12.33199 -6.45554,34.04059 10.15625,39.96875 2.06362,0.73643 7.4625,1.3509 12,1.375 l 8.25,0.0312 0,-5.5 0,-5.5 -7.5625,0 c -8.42932,0 -12.19732,-1.40003 -15.25,-5.71875 -3.31917,-4.69572 -3.63265,-8.72614 -1.125,-13.90625 3.38438,-6.99119 7.16246,-8.31635 23.6875,-8.34375 l 13.25,-0.0312 0,-5.59375 0,-5.59375 z m -189.9375,-23.0625 c -4.44751,-0.11045 -7.08619,1.41581 -14.28125,6.9375 -4.95953,3.80609 -14.47737,13.60244 -24.5625,25.28125 l -3,3.5 -0.75,-7.9375 c -0.40796,-4.35357 -0.49732,-11.81158 -0.1875,-16.59375 0.55335,-8.5409 0.54547,-8.69178 -1.59375,-8.21875 -7.56759,1.67338 -19.86447,6.65777 -23.40625,9.5 -0.95952,0.77004 -0.94186,1.27688 0.0625,2.28125 0.70355,0.70354 6.14873,14.13316 12.125,29.875 5.97628,15.74184 11.37641,28.633 11.96875,28.625 3.52302,-0.0501 3.84065,-1.51209 2.625,-11.96875 -0.65321,-5.61856 -0.96866,-10.43758 -0.6875,-10.71875 0.28117,-0.28116 6.25698,4.03355 13.28125,9.59375 7.02428,5.56019 13.13029,10.09375 13.5625,10.09375 1.89183,0 0.18295,-2.9366 -9.21875,-15.9375 -5.50001,-7.60554 -10,-14.0415 -10,-14.3125 0,-1.87505 29.51028,-17.75 33,-17.75 1.24938,0 1.11261,2.14619 -0.59375,10.65625 -0.5254,2.62043 -0.27518,3.259 1.46875,3.8125 1.15276,0.36585 2.56222,0.37907 3.125,0.0312 3.1777,-1.96392 8.3054,-17.79221 9.46875,-29.25 0.56538,-5.56839 0.44714,-6.2373 -1.15625,-6.3125 -0.98981,-0.0464 -4.5125,-0.44863 -7.8125,-0.875 -1.30121,-0.16812 -2.41115,-0.28701 -3.4375,-0.3125 z"
           inkscape:connector-curvature="0" />
      </g>
    </g>
    <g
       style="font-style:normal;font-variant:normal;font-weight:normal;font-stretch:normal;font-size:43.93444443px;line-height:125%;font-family:'Nimbus Sans L';-inkscape-font-specification:'Nimbus Sans L';letter-spacing:0px;word-spacing:0px;fill:#1a1a1a;fill-opacity:1;stroke:none;stroke-width:1px;stroke-linecap:butt;stroke-linejoin:miter;stroke-opacity:1"
       id="text5969">
      <path
         d="m 108.65775,645.83707 0,3.96793 1.29351,0 q 1.29351,0 1.83539,0.50691 0.55935,0.48944 0.55935,1.29351 0,0.78659 -0.55935,1.29351 -0.54188,0.48944 -1.83539,0.48944 l -5.43623,0 q -1.29351,0 -1.85287,-0.48944 -0.54187,-0.50692 -0.54187,-1.31099 0,-0.78659 0.55935,-1.27603 0.55936,-0.50691 1.83539,-0.50691 l 0.55935,0 0,-14.01885 -0.55935,0 q -1.29351,0 -1.85287,-0.48944 -0.54187,-0.50691 -0.54187,-1.31099 0,-0.80407 0.54187,-1.29351 0.55936,-0.50691 1.85287,-0.50691 l 5.43623,0.0175 q 1.29351,0 1.83539,0.48943 0.55935,0.48944 0.55935,1.29351 0,0.80408 -0.55935,1.31099 -0.54188,0.48944 -1.83539,0.48944 l -1.29351,0 0,5.31388 6.36267,-5.4712 q -0.55935,-0.40204 -0.76911,-0.75163 -0.20976,-0.3496 -0.20976,-0.85652 0,-0.82155 0.54188,-1.32847 0.55935,-0.50691 1.85286,-0.50691 l 3.65329,0.0175 q 1.29351,0 1.83539,0.48943 0.55935,0.48944 0.55935,1.29351 0,0.7866 -0.55935,1.29351 -0.54188,0.50692 -1.71303,0.50692 l -6.43259,5.62851 q 1.80043,1.03131 3.37362,3.14638 1.59066,2.11506 2.81425,5.24396 l 0.9614,0 q 1.27603,0 1.8179,0.50691 0.55936,0.48944 0.55936,1.29351 0,0.78659 -0.54188,1.29351 -0.54187,0.48944 -1.83538,0.48944 l -3.25126,0 q -1.11871,-2.67442 -2.44718,-5.10412 -1.08375,-1.97523 -2.06262,-2.8667 -0.96139,-0.90895 -2.30734,-1.45083 l -2.20247,1.87035 z"
         style="font-style:normal;font-variant:normal;font-weight:bold;font-stretch:normal;font-size:35.79875183px;font-family:'Courier New';-inkscape-font-specification:'Courier New Bold';text-align:start;text-anchor:start;fill:#1a1a1a"
         id="path5440" />
      <path
         d="m 132.36044,635.78615 0,14.01885 7.7261,0 0,-3.3911 q 0,-1.29351 0.48944,-1.83538 0.50691,-0.55936 1.31099,-0.55936 0.78659,0 1.27603,0.55936 0.50691,0.54187 0.50691,1.83538 l 0,6.97447 -16.97294,0 q -1.29351,0 -1.85287,-0.48944 -0.54187,-0.50692 -0.54187,-1.31099 0,-0.78659 0.54187,-1.27603 0.55936,-0.50691 1.85287,-0.50691 l 2.0801,0 0,-14.01885 -2.0801,0 q -1.29351,0 -1.85287,-0.48944 -0.54187,-0.50691 -0.54187,-1.31099 0,-0.80407 0.54187,-1.29351 0.55936,-0.50691 1.85287,-0.50691 l 7.76106,0.0175 q 1.29351,0 1.83538,0.48943 0.55936,0.48944 0.55936,1.29351 0,0.80408 -0.55936,1.31099 -0.54187,0.48944 -1.83538,0.48944 l -2.09759,0 z"
         style="font-style:normal;font-variant:normal;font-weight:bold;font-stretch:normal;font-size:35.79875183px;font-family:'Courier New';-inkscape-font-specification:'Courier New Bold';text-align:start;text-anchor:start;fill:#1a1a1a"
         id="path5442" />
      <path
         d="m 165.58601,635.78615 0,10.1558 q 0,3.32117 -2.39474,5.64599 -2.37726,2.32482 -5.73339,2.32482 -1.66059,0 -3.1289,-0.57683 -1.45083,-0.59432 -2.62198,-1.73051 -1.15367,-1.13619 -1.80042,-2.35978 -0.64676,-1.24107 -0.64676,-3.30369 l 0,-10.1558 q -1.13619,0 -1.67806,-0.50692 -0.54188,-0.50691 -0.54188,-1.29351 0,-0.80407 0.54188,-1.29351 0.54187,-0.48943 1.85286,-0.48943 l 4.70208,-0.0175 q 1.29351,0 1.83539,0.50691 0.55935,0.48944 0.55935,1.29351 0,0.80408 -0.55935,1.31099 -0.54188,0.48944 -1.83539,0.48944 l -1.29351,0 0,10.47043 q 0,1.60815 1.32847,2.84922 1.34595,1.22359 3.23378,1.22359 1.25855,0 2.35978,-0.59431 1.10123,-0.59432 1.80042,-1.73051 0.437,-0.71667 0.437,-1.74799 l 0,-10.47043 -1.29351,0 q -1.29351,0 -1.85287,-0.48944 -0.54187,-0.50691 -0.54187,-1.31099 0,-0.80407 0.54187,-1.29351 0.55936,-0.50691 1.85287,-0.50691 l 4.70208,0.0175 q 1.29351,0 1.83539,0.48943 0.55935,0.48944 0.55935,1.29351 0,0.7866 -0.54187,1.29351 -0.54188,0.50692 -1.67807,0.50692 z"
         style="font-style:normal;font-variant:normal;font-weight:bold;font-stretch:normal;font-size:35.79875183px;font-family:'Courier New';-inkscape-font-specification:'Courier New Bold';text-align:start;text-anchor:start;fill:#1a1a1a"
         id="path5444" />
      <path
         d="m 209.9332,646.83342 0,4.80696 q -2.4297,1.31099 -4.14273,1.78295 -1.69555,0.48943 -3.67077,0.48943 -2.74434,0 -5.08664,-0.82155 -1.83539,-0.62928 -2.90166,-1.59067 -1.04879,-0.96139 -1.94026,-2.83174 -0.89147,-1.88782 -0.89147,-4.21264 l 0,-2.58702 q 0,-3.58337 2.18498,-6.39763 2.93661,-3.81061 7.98829,-3.81061 1.46831,0 2.7793,0.29716 1.32847,0.29716 2.5171,0.89147 0.71668,-0.64675 1.39839,-0.64675 0.78659,0 1.27603,0.54187 0.48944,0.54188 0.48944,1.83539 l 0,2.32482 q 0,1.29351 -0.50692,1.85286 -0.48944,0.54188 -1.27603,0.54188 -0.62927,0 -1.08375,-0.38456 -0.3496,-0.26219 -0.59432,-1.15367 -0.22723,-0.90895 -0.52439,-1.22359 -0.47196,-0.50691 -1.67807,-0.89147 -1.18863,-0.40204 -2.67442,-0.40204 -2.13254,0 -3.70573,0.874 -1.11871,0.64675 -2.06262,2.2549 -0.94391,1.60814 -0.94391,3.49597 l 0,2.58702 q 0,2.88418 1.66058,4.38744 1.67807,1.48579 5.31388,1.48579 2.46466,0 4.49232,-0.92643 l 0,-2.56954 -3.65329,0 q -1.29351,0 -1.85286,-0.48944 -0.54188,-0.50691 -0.54188,-1.31099 0,-0.80407 0.54188,-1.29351 0.55935,-0.50691 1.85286,-0.50691 l 6.36267,0.0175 q 1.29351,0 1.83539,0.48943 0.55935,0.48944 0.55935,1.29351 0,0.62928 -0.38455,1.10124 -0.36708,0.47195 -1.13619,0.69919 z"
         style="font-style:normal;font-variant:normal;font-weight:bold;font-stretch:normal;font-size:35.79875183px;font-family:'Courier New';-inkscape-font-specification:'Courier New Bold';text-align:start;text-anchor:start;fill:#1a1a1a"
         id="path5446" />
      <path
         d="m 217.88653,638.96748 0,10.83752 1.29351,0 q 1.29351,0 1.83538,0.50691 0.55936,0.48944 0.55936,1.29351 0,0.78659 -0.55936,1.29351 -0.54187,0.48944 -1.83538,0.48944 l -4.70208,0 q -1.29351,0 -1.85287,-0.48944 -0.54188,-0.50692 -0.54188,-1.31099 0,-0.76911 0.54188,-1.27603 0.54188,-0.50691 1.67807,-0.50691 l 0,-14.01885 -0.55936,0 q -1.29351,0 -1.85286,-0.48944 -0.54188,-0.50691 -0.54188,-1.31099 0,-0.80407 0.54188,-1.29351 0.55935,-0.50691 1.85286,-0.50691 l 4.14273,0.0175 9.15944,14.36844 0,-10.78507 -1.29351,0 q -1.2935,0 -1.85286,-0.48944 -0.54188,-0.50691 -0.54188,-1.31099 0,-0.80407 0.54188,-1.29351 0.55936,-0.50691 1.85286,-0.50691 l 4.70209,0.0175 q 1.29351,0 1.83538,0.48943 0.55936,0.48944 0.55936,1.29351 0,0.7866 -0.54188,1.29351 -0.54187,0.50692 -1.66058,0.50692 l 0,17.60222 -3.54842,0 -9.21188,-14.42089 z"
         style="font-style:normal;font-variant:normal;font-weight:bold;font-stretch:normal;font-size:35.79875183px;font-family:'Courier New';-inkscape-font-specification:'Courier New Bold';text-align:start;text-anchor:start;fill:#1a1a1a"
         id="path5448" />
      <path
         d="m 252.0247,635.78615 0,10.1558 q 0,3.32117 -2.39474,5.64599 -2.37726,2.32482 -5.7334,2.32482 -1.66058,0 -3.12889,-0.57683 -1.45083,-0.59432 -2.62198,-1.73051 -1.15367,-1.13619 -1.80043,-2.35978 -0.64675,-1.24107 -0.64675,-3.30369 l 0,-10.1558 q -1.13619,0 -1.67807,-0.50692 -0.54187,-0.50691 -0.54187,-1.29351 0,-0.80407 0.54187,-1.29351 0.54188,-0.48943 1.85287,-0.48943 l 4.70208,-0.0175 q 1.29351,0 1.83538,0.50691 0.55936,0.48944 0.55936,1.29351 0,0.80408 -0.55936,1.31099 -0.54187,0.48944 -1.83538,0.48944 l -1.29351,0 0,10.47043 q 0,1.60815 1.32847,2.84922 1.34595,1.22359 3.23377,1.22359 1.25855,0 2.35978,-0.59431 1.10124,-0.59432 1.80043,-1.73051 0.437,-0.71667 0.437,-1.74799 l 0,-10.47043 -1.29351,0 q -1.29351,0 -1.85287,-0.48944 -0.54187,-0.50691 -0.54187,-1.31099 0,-0.80407 0.54187,-1.29351 0.55936,-0.50691 1.85287,-0.50691 l 4.70208,0.0175 q 1.29351,0 1.83538,0.48943 0.55936,0.48944 0.55936,1.29351 0,0.7866 -0.54188,1.29351 -0.54187,0.50692 -1.67806,0.50692 z"
         style="font-style:normal;font-variant:normal;font-weight:bold;font-stretch:normal;font-size:35.79875183px;font-family:'Courier New';-inkscape-font-specification:'Courier New Bold';text-align:start;text-anchor:start;fill:#1a1a1a"
         id="path5450" />
      <path
         d="m 287.01846,631.18895 -11.48427,24.75148 q -0.43699,0.92643 -0.78659,1.20611 -0.45448,0.36707 -1.10123,0.36707 -0.73416,0 -1.27603,-0.52439 -0.5244,-0.5244 -0.5244,-1.18863 0,-0.47196 0.41952,-1.38091 l 11.51923,-24.734 q 0.43699,-0.92644 0.76911,-1.20611 0.47196,-0.36708 1.10123,-0.36708 0.73415,0 1.25855,0.5244 0.5244,0.50691 0.5244,1.17115 0,0.47195 -0.41952,1.38091 z"
         style="font-style:normal;font-variant:normal;font-weight:bold;font-stretch:normal;font-size:35.79875183px;font-family:'Courier New';-inkscape-font-specification:'Courier New Bold';text-align:start;text-anchor:start;fill:#1a1a1a"
         id="path5452" />
      <path
         d="m 316.82381,635.78615 0,14.01885 7.7261,0 0,-3.3911 q 0,-1.29351 0.48943,-1.83538 0.50692,-0.55936 1.31099,-0.55936 0.7866,0 1.27603,0.55936 0.50692,0.54187 0.50692,1.83538 l 0,6.97447 -16.97294,0 q -1.29351,0 -1.85287,-0.48944 -0.54187,-0.50692 -0.54187,-1.31099 0,-0.78659 0.54187,-1.27603 0.55936,-0.50691 1.85287,-0.50691 l 2.0801,0 0,-14.01885 -2.0801,0 q -1.29351,0 -1.85287,-0.48944 -0.54187,-0.50691 -0.54187,-1.31099 0,-0.80407 0.54187,-1.29351 0.55936,-0.50691 1.85287,-0.50691 l 7.76105,0.0175 q 1.29351,0 1.83539,0.48943 0.55935,0.48944 0.55935,1.29351 0,0.80408 -0.55935,1.31099 -0.54188,0.48944 -1.83539,0.48944 l -2.09758,0 z"
         style="font-style:normal;font-variant:normal;font-weight:bold;font-stretch:normal;font-size:35.79875183px;font-family:'Courier New';-inkscape-font-specification:'Courier New Bold';text-align:start;text-anchor:start;fill:#1a1a1a"
         id="path5454" />
      <path
         d="m 341.5753,635.78615 0,14.01885 3.61833,0 q 1.29351,0 1.83538,0.50691 0.55936,0.48944 0.55936,1.29351 0,0.78659 -0.55936,1.29351 -0.54187,0.48944 -1.83538,0.48944 l -10.82004,0 q -1.29351,0 -1.85286,-0.48944 -0.54188,-0.50692 -0.54188,-1.31099 0,-0.78659 0.54188,-1.27603 0.55935,-0.50691 1.85286,-0.50691 l 3.61833,0 0,-14.01885 -3.61833,0 q -1.29351,0 -1.85286,-0.48944 -0.54188,-0.50691 -0.54188,-1.31099 0,-0.80407 0.54188,-1.29351 0.55935,-0.50691 1.85286,-0.50691 l 10.82004,0.0175 q 1.29351,0 1.83538,0.48943 0.55936,0.48944 0.55936,1.29351 0,0.80408 -0.55936,1.31099 -0.54187,0.48944 -1.83538,0.48944 l -3.61833,0 z"
         style="font-style:normal;font-variant:normal;font-weight:bold;font-stretch:normal;font-size:35.79875183px;font-family:'Courier New';-inkscape-font-specification:'Courier New Bold';text-align:start;text-anchor:start;fill:#1a1a1a"
         id="path5456" />
      <path
         d="m 356.76528,638.96748 0,10.83752 1.29351,0 q 1.29351,0 1.83539,0.50691 0.55935,0.48944 0.55935,1.29351 0,0.78659 -0.55935,1.29351 -0.54188,0.48944 -1.83539,0.48944 l -4.70208,0 q -1.29351,0 -1.85287,-0.48944 -0.54187,-0.50692 -0.54187,-1.31099 0,-0.76911 0.54187,-1.27603 0.54188,-0.50691 1.67807,-0.50691 l 0,-14.01885 -0.55935,0 q -1.29351,0 -1.85287,-0.48944 -0.54188,-0.50691 -0.54188,-1.31099 0,-0.80407 0.54188,-1.29351 0.55936,-0.50691 1.85287,-0.50691 l 4.14272,0.0175 9.15945,14.36844 0,-10.78507 -1.29351,0 q -1.29351,0 -1.85287,-0.48944 -0.54187,-0.50691 -0.54187,-1.31099 0,-0.80407 0.54187,-1.29351 0.55936,-0.50691 1.85287,-0.50691 l 4.70208,0.0175 q 1.29351,0 1.83539,0.48943 0.55935,0.48944 0.55935,1.29351 0,0.7866 -0.54187,1.29351 -0.54188,0.50692 -1.66059,0.50692 l 0,17.60222 -3.54841,0 -9.21189,-14.42089 z"
         style="font-style:normal;font-variant:normal;font-weight:bold;font-stretch:normal;font-size:35.79875183px;font-family:'Courier New';-inkscape-font-specification:'Courier New Bold';text-align:start;text-anchor:start;fill:#1a1a1a"
         id="path5458" />
      <path
         d="m 390.90345,635.78615 0,10.1558 q 0,3.32117 -2.39474,5.64599 -2.37726,2.32482 -5.73339,2.32482 -1.66059,0 -3.1289,-0.57683 -1.45083,-0.59432 -2.62198,-1.73051 -1.15367,-1.13619 -1.80042,-2.35978 -0.64676,-1.24107 -0.64676,-3.30369 l 0,-10.1558 q -1.13619,0 -1.67806,-0.50692 -0.54188,-0.50691 -0.54188,-1.29351 0,-0.80407 0.54188,-1.29351 0.54187,-0.48943 1.85286,-0.48943 l 4.70208,-0.0175 q 1.29351,0 1.83539,0.50691 0.55935,0.48944 0.55935,1.29351 0,0.80408 -0.55935,1.31099 -0.54188,0.48944 -1.83539,0.48944 l -1.29351,0 0,10.47043 q 0,1.60815 1.32847,2.84922 1.34595,1.22359 3.23378,1.22359 1.25855,0 2.35978,-0.59431 1.10123,-0.59432 1.80042,-1.73051 0.437,-0.71667 0.437,-1.74799 l 0,-10.47043 -1.29351,0 q -1.29351,0 -1.85287,-0.48944 -0.54187,-0.50691 -0.54187,-1.31099 0,-0.80407 0.54187,-1.29351 0.55936,-0.50691 1.85287,-0.50691 l 4.70208,0.0175 q 1.29351,0 1.83539,0.48943 0.55935,0.48944 0.55935,1.29351 0,0.7866 -0.54187,1.29351 -0.54188,0.50692 -1.67807,0.50692 z"
         style="font-style:normal;font-variant:normal;font-weight:bold;font-stretch:normal;font-size:35.79875183px;font-family:'Courier New';-inkscape-font-specification:'Courier New Bold';text-align:start;text-anchor:start;fill:#1a1a1a"
         id="path5460" />
      <path
         d="m 406.53045,642.58581 5.97811,7.21919 q 1.06627,0.0175 1.59067,0.52439 0.54187,0.48944 0.54187,1.27603 0,0.78659 -0.55935,1.29351 -0.54188,0.48944 -1.83539,0.48944 l -4.03784,0 q -1.27603,0 -1.83539,-0.48944 -0.54188,-0.50692 -0.54188,-1.31099 0,-0.75163 0.50692,-1.24107 0.50692,-0.50691 1.52075,-0.54187 l -3.60085,-4.43989 -3.63581,4.43989 q 0.99635,0.035 1.50326,0.54187 0.50692,0.50692 0.50692,1.25855 0,0.78659 -0.55936,1.29351 -0.54187,0.48944 -1.83538,0.48944 l -4.02037,0 q -1.29351,0 -1.85286,-0.48944 -0.54188,-0.50692 -0.54188,-1.31099 0,-0.76911 0.54188,-1.27603 0.54187,-0.50691 1.59066,-0.50691 l 5.94316,-7.25415 -5.66348,-6.7647 q -1.04879,-0.035 -1.57319,-0.5244 -0.50691,-0.50691 -0.50691,-1.27603 0,-0.80407 0.54187,-1.29351 0.55936,-0.50691 1.85287,-0.50691 l 3.30369,0.0175 q 1.29351,0 1.83539,0.48943 0.55935,0.48944 0.55935,1.29351 0,0.59432 -0.34959,1.08375 -0.22724,0.29716 -1.01384,0.71668 l 3.33866,4.00289 3.26873,-4.00289 q -0.78659,-0.41952 -1.01383,-0.71668 -0.3496,-0.48943 -0.3496,-1.08375 0,-0.78659 0.54188,-1.29351 0.55935,-0.50691 1.85286,-0.50691 l 3.28622,0.0175 q 1.29351,0 1.83538,0.48943 0.55936,0.48944 0.55936,1.29351 0,0.76912 -0.54188,1.27603 -0.52439,0.50692 -1.53823,0.5244 l -5.59355,6.79966 z"
         style="font-style:normal;font-variant:normal;font-weight:bold;font-stretch:normal;font-size:35.79875183px;font-family:'Courier New';-inkscape-font-specification:'Courier New Bold';text-align:start;text-anchor:start;fill:#1a1a1a"
         id="path5462" />
      <path
         d="m 456.78626,635.78615 0,10.1558 q 0,3.32117 -2.39474,5.64599 -2.37726,2.32482 -5.73339,2.32482 -1.66059,0 -3.1289,-0.57683 -1.45082,-0.59432 -2.62198,-1.73051 -1.15367,-1.13619 -1.80042,-2.35978 -0.64676,-1.24107 -0.64676,-3.30369 l 0,-10.1558 q -1.13619,0 -1.67806,-0.50692 -0.54188,-0.50691 -0.54188,-1.29351 0,-0.80407 0.54188,-1.29351 0.54187,-0.48943 1.85286,-0.48943 l 4.70209,-0.0175 q 1.2935,0 1.83538,0.50691 0.55936,0.48944 0.55936,1.29351 0,0.80408 -0.55936,1.31099 -0.54188,0.48944 -1.83538,0.48944 l -1.29351,0 0,10.47043 q 0,1.60815 1.32847,2.84922 1.34594,1.22359 3.23377,1.22359 1.25855,0 2.35978,-0.59431 1.10123,-0.59432 1.80043,-1.73051 0.43699,-0.71667 0.43699,-1.74799 l 0,-10.47043 -1.29351,0 q -1.29351,0 -1.85286,-0.48944 -0.54188,-0.50691 -0.54188,-1.31099 0,-0.80407 0.54188,-1.29351 0.55935,-0.50691 1.85286,-0.50691 l 4.70208,0.0175 q 1.29351,0 1.83539,0.48943 0.55936,0.48944 0.55936,1.29351 0,0.7866 -0.54188,1.29351 -0.54188,0.50692 -1.67807,0.50692 z"
         style="font-style:normal;font-variant:normal;font-weight:bold;font-stretch:normal;font-size:35.79875183px;font-family:'Courier New';-inkscape-font-specification:'Courier New Bold';text-align:start;text-anchor:start;fill:#1a1a1a"
         id="path5464" />
      <path
         d="m 464.827,652.47941 q -0.47195,0.55936 -0.76911,0.71668 -0.27968,0.15732 -0.6992,0.15732 -0.82155,0 -1.32847,-0.54188 -0.48943,-0.55935 -0.48943,-1.83538 l 0,-2.41222 q 0,-1.29351 0.48943,-1.83539 0.50692,-0.55936 1.32847,-0.55936 0.62928,0 1.0488,0.33212 0.43699,0.33212 0.66423,1.11871 0.22724,0.76912 0.47196,1.04879 0.50691,0.54188 1.80042,1.10124 1.29351,0.55935 2.83174,0.55935 2.39474,0 3.93297,-1.11871 0.97887,-0.68171 0.97887,-1.67807 0,-0.66423 -0.47196,-1.24107 -0.47195,-0.59431 -1.53822,-0.97887 -0.6992,-0.2622 -3.1289,-0.71667 -2.93662,-0.54188 -4.43988,-1.31099 -1.50327,-0.76912 -2.37726,-2.1675 -0.874,-1.39839 -0.874,-3.02402 0,-2.56954 2.15003,-4.49232 2.15002,-1.94027 5.59355,-1.94027 1.38091,0 2.55206,0.31464 1.18863,0.29716 2.15002,0.92643 0.6992,-0.68171 1.39839,-0.68171 0.7866,0 1.27603,0.55935 0.50692,0.54188 0.50692,1.81791 l 0,2.6919 q 0,1.29351 -0.50692,1.85286 -0.48943,0.54188 -1.27603,0.54188 -0.66423,0 -1.15367,-0.40204 -0.38456,-0.29716 -0.57683,-1.18863 -0.19228,-0.89147 -0.48944,-1.27603 -0.50692,-0.66423 -1.52075,-1.11871 -1.01383,-0.45448 -2.3423,-0.45448 -1.94026,0 -3.07645,0.90896 -1.11872,0.89147 -1.11872,1.87034 0,0.66424 0.45448,1.29351 0.47196,0.6118 1.36343,0.96139 0.59431,0.24472 3.33865,0.7866 2.76182,0.54187 4.23013,1.18863 1.48579,0.64675 2.46466,2.02766 0.97887,1.38091 0.97887,3.28621 0,2.65694 -1.87034,4.24761 -2.48214,2.09758 -6.32771,2.09758 -1.48579,0 -2.90166,-0.36707 -1.39839,-0.3496 -2.72686,-1.06628 z"
         style="font-style:normal;font-variant:normal;font-weight:bold;font-stretch:normal;font-size:35.79875183px;font-family:'Courier New';-inkscape-font-specification:'Courier New Bold';text-align:start;text-anchor:start;fill:#1a1a1a"
         id="path5466" />
      <path
         d="m 487.84795,644.54356 0,5.26144 9.14197,0 0,-1.94027 q 0,-1.29351 0.48943,-1.83538 0.50692,-0.55936 1.31099,-0.55936 0.7866,0 1.27603,0.55936 0.50692,0.54187 0.50692,1.83538 l 0,5.52364 -16.86807,0 q -1.29351,0 -1.85286,-0.48944 -0.54188,-0.50692 -0.54188,-1.31099 0,-0.78659 0.55936,-1.27603 0.55935,-0.50691 1.83538,-0.50691 l 0.55936,0 0,-14.01885 -0.55936,0 q -1.29351,0 -1.85286,-0.48944 -0.54188,-0.50691 -0.54188,-1.31099 0,-0.80407 0.54188,-1.29351 0.55935,-0.50691 1.85286,-0.50691 l 16.08147,0.0175 0,5.45371 q 0,1.27603 -0.48943,1.83539 -0.48944,0.54187 -1.29351,0.54187 -0.80408,0 -1.31099,-0.54187 -0.48944,-0.54188 -0.48944,-1.83539 l 0,-1.87034 -8.35537,0 0,5.17404 3.14637,0 q 0,-1.39839 0.2622,-1.80043 0.54188,-0.85651 1.53823,-0.85651 0.78659,0 1.27603,0.55935 0.50692,0.54188 0.50692,1.83539 l 0,4.12525 q 0,1.17115 -0.27968,1.57318 -0.55936,0.82156 -1.50327,0.82156 -0.99635,0 -1.53823,-0.85652 -0.2622,-0.40203 -0.2622,-1.8179 l -3.14637,0 z"
         style="font-style:normal;font-variant:normal;font-weight:bold;font-stretch:normal;font-size:35.79875183px;font-family:'Courier New';-inkscape-font-specification:'Courier New Bold';text-align:start;text-anchor:start;fill:#1a1a1a"
         id="path5468" />
      <path
         d="m 509.29574,645.29519 0,4.50981 1.29351,0 q 1.29351,0 1.83539,0.50691 0.55935,0.48944 0.55935,1.29351 0,0.78659 -0.55935,1.29351 -0.54188,0.48944 -1.83539,0.48944 l -5.43624,0 q -1.2935,0 -1.85286,-0.48944 -0.54188,-0.50692 -0.54188,-1.31099 0,-0.78659 0.55936,-1.27603 0.55935,-0.50691 1.83538,-0.50691 l 0.55936,0 0,-14.01885 -0.55936,0 q -1.2935,0 -1.85286,-0.48944 -0.54188,-0.50691 -0.54188,-1.31099 0,-0.80407 0.54188,-1.29351 0.55936,-0.50691 1.85286,-0.50691 l 8.11066,0.0175 q 3.79313,0 5.87323,1.88782 2.09759,1.87035 2.09759,4.56225 0,1.67806 -0.97888,3.05897 -0.97887,1.36343 -2.95409,2.4297 1.13619,0.99635 2.4297,2.55206 0.80407,0.99635 2.1675,3.11142 1.36343,0 1.80043,0.27967 0.78659,0.54188 0.78659,1.52075 0,0.78659 -0.54188,1.29351 -0.54187,0.48944 -1.83538,0.48944 l -2.04515,0 q -4.35248,-6.72975 -7.21918,-8.09318 l -3.54841,0 z m 0,-3.58337 2.79678,0 q 1.55571,0 2.7793,-0.47196 1.6431,-0.62927 2.20246,-1.32846 0.57683,-0.6992 0.57683,-1.38091 0,-1.01384 -1.08375,-1.87035 -1.08375,-0.87399 -3.16385,-0.87399 l -4.10777,0 0,5.92567 z"
         style="font-style:normal;font-variant:normal;font-weight:bold;font-stretch:normal;font-size:35.79875183px;font-family:'Courier New';-inkscape-font-specification:'Courier New Bold';text-align:start;text-anchor:start;fill:#1a1a1a"
         id="path5470" />
      <path
         d="m 529.22278,652.47941 q -0.47195,0.55936 -0.76911,0.71668 -0.27968,0.15732 -0.69919,0.15732 -0.82156,0 -1.32847,-0.54188 -0.48944,-0.55935 -0.48944,-1.83538 l 0,-2.41222 q 0,-1.29351 0.48944,-1.83539 0.50691,-0.55936 1.32847,-0.55936 0.62927,0 1.04879,0.33212 0.43699,0.33212 0.66423,1.11871 0.22724,0.76912 0.47196,1.04879 0.50691,0.54188 1.80042,1.10124 1.29351,0.55935 2.83174,0.55935 2.39474,0 3.93297,-1.11871 0.97887,-0.68171 0.97887,-1.67807 0,-0.66423 -0.47195,-1.24107 -0.47196,-0.59431 -1.53823,-0.97887 -0.6992,-0.2622 -3.1289,-0.71667 -2.93661,-0.54188 -4.43988,-1.31099 -1.50327,-0.76912 -2.37726,-2.1675 -0.87399,-1.39839 -0.87399,-3.02402 0,-2.56954 2.15002,-4.49232 2.15002,-1.94027 5.59355,-1.94027 1.38091,0 2.55206,0.31464 1.18863,0.29716 2.15003,0.92643 0.69919,-0.68171 1.39838,-0.68171 0.7866,0 1.27603,0.55935 0.50692,0.54188 0.50692,1.81791 l 0,2.6919 q 0,1.29351 -0.50692,1.85286 -0.48943,0.54188 -1.27603,0.54188 -0.66423,0 -1.15367,-0.40204 -0.38455,-0.29716 -0.57683,-1.18863 -0.19228,-0.89147 -0.48944,-1.27603 -0.50691,-0.66423 -1.52075,-1.11871 -1.01383,-0.45448 -2.3423,-0.45448 -1.94026,0 -3.07645,0.90896 -1.11871,0.89147 -1.11871,1.87034 0,0.66424 0.45447,1.29351 0.47196,0.6118 1.36343,0.96139 0.59432,0.24472 3.33866,0.7866 2.76181,0.54187 4.23012,1.18863 1.48579,0.64675 2.46466,2.02766 0.97887,1.38091 0.97887,3.28621 0,2.65694 -1.87034,4.24761 -2.48214,2.09758 -6.32771,2.09758 -1.48579,0 -2.90166,-0.36707 -1.39839,-0.3496 -2.72686,-1.06628 z"
         style="font-style:normal;font-variant:normal;font-weight:bold;font-stretch:normal;font-size:35.79875183px;font-family:'Courier New';-inkscape-font-specification:'Courier New Bold';text-align:start;text-anchor:start;fill:#1a1a1a"
         id="path5472" />
      <path
         d="m 602.22463,646.83342 0,4.80696 q -2.4297,1.31099 -4.14273,1.78295 -1.69554,0.48943 -3.67077,0.48943 -2.74433,0 -5.08664,-0.82155 -1.83538,-0.62928 -2.90165,-1.59067 -1.04879,-0.96139 -1.94027,-2.83174 -0.89147,-1.88782 -0.89147,-4.21264 l 0,-2.58702 q 0,-3.58337 2.18498,-6.39763 2.93662,-3.81061 7.9883,-3.81061 1.46831,0 2.7793,0.29716 1.32847,0.29716 2.5171,0.89147 0.71667,-0.64675 1.39839,-0.64675 0.78659,0 1.27603,0.54187 0.48943,0.54188 0.48943,1.83539 l 0,2.32482 q 0,1.29351 -0.50691,1.85286 -0.48944,0.54188 -1.27603,0.54188 -0.62928,0 -1.08376,-0.38456 -0.34959,-0.26219 -0.59431,-1.15367 -0.22724,-0.90895 -0.5244,-1.22359 -0.47195,-0.50691 -1.67806,-0.89147 -1.18863,-0.40204 -2.67442,-0.40204 -2.13254,0 -3.70573,0.874 -1.11871,0.64675 -2.06263,2.2549 -0.94391,1.60814 -0.94391,3.49597 l 0,2.58702 q 0,2.88418 1.66059,4.38744 1.67807,1.48579 5.31388,1.48579 2.46466,0 4.49232,-0.92643 l 0,-2.56954 -3.65329,0 q -1.29351,0 -1.85287,-0.48944 -0.54187,-0.50691 -0.54187,-1.31099 0,-0.80407 0.54187,-1.29351 0.55936,-0.50691 1.85287,-0.50691 l 6.36267,0.0175 q 1.29351,0 1.83538,0.48943 0.55936,0.48944 0.55936,1.29351 0,0.62928 -0.38456,1.10124 -0.36708,0.47195 -1.13619,0.69919 z"
         style="font-style:normal;font-variant:normal;font-weight:bold;font-stretch:normal;font-size:35.79875183px;font-family:'Courier New';-inkscape-font-specification:'Courier New Bold';text-align:start;text-anchor:start;fill:#1a1a1a"
         id="path5474" />
      <path
         d="m 610.96456,645.29519 0,4.50981 1.29351,0 q 1.29351,0 1.83539,0.50691 0.55935,0.48944 0.55935,1.29351 0,0.78659 -0.55935,1.29351 -0.54188,0.48944 -1.83539,0.48944 l -5.43623,0 q -1.29351,0 -1.85287,-0.48944 -0.54187,-0.50692 -0.54187,-1.31099 0,-0.78659 0.55935,-1.27603 0.55936,-0.50691 1.83539,-0.50691 l 0.55935,0 0,-14.01885 -0.55935,0 q -1.29351,0 -1.85287,-0.48944 -0.54187,-0.50691 -0.54187,-1.31099 0,-0.80407 0.54187,-1.29351 0.55936,-0.50691 1.85287,-0.50691 l 8.11065,0.0175 q 3.79313,0 5.87324,1.88782 2.09758,1.87035 2.09758,4.56225 0,1.67806 -0.97887,3.05897 -0.97888,1.36343 -2.9541,2.4297 1.13619,0.99635 2.4297,2.55206 0.80407,0.99635 2.1675,3.11142 1.36343,0 1.80043,0.27967 0.78659,0.54188 0.78659,1.52075 0,0.78659 -0.54187,1.29351 -0.54188,0.48944 -1.83539,0.48944 l -2.04514,0 q -4.35249,-6.72975 -7.21918,-8.09318 l -3.54842,0 z m 0,-3.58337 2.79678,0 q 1.55571,0 2.7793,-0.47196 1.64311,-0.62927 2.20246,-1.32846 0.57684,-0.6992 0.57684,-1.38091 0,-1.01384 -1.08375,-1.87035 -1.08376,-0.87399 -3.16386,-0.87399 l -4.10777,0 0,5.92567 z"
         style="font-style:normal;font-variant:normal;font-weight:bold;font-stretch:normal;font-size:35.79875183px;font-family:'Courier New';-inkscape-font-specification:'Courier New Bold';text-align:start;text-anchor:start;fill:#1a1a1a"
         id="path5476" />
      <path
         d="m 646.18648,642.79557 q 0,4.772 -3.04149,7.95334 -3.02402,3.16385 -7.00942,3.16385 -3.58338,0 -6.46755,-2.63946 -3.56589,-3.26873 -3.56589,-8.47773 0,-5.209 3.56589,-8.49521 2.88417,-2.63946 6.46755,-2.63946 3.9854,0 7.00942,3.18134 3.04149,3.16385 3.04149,7.95333 z m -3.58337,0 q 0,-3.26873 -1.97522,-5.40127 -1.97522,-2.15003 -4.49232,-2.15003 -2.49962,0 -4.47485,2.15003 -1.97522,2.15002 -1.97522,5.40127 0,3.25126 1.97522,5.40128 1.97523,2.13254 4.47485,2.13254 2.5171,0 4.49232,-2.13254 1.97522,-2.13254 1.97522,-5.40128 z"
         style="font-style:normal;font-variant:normal;font-weight:bold;font-stretch:normal;font-size:35.79875183px;font-family:'Courier New';-inkscape-font-specification:'Courier New Bold';text-align:start;text-anchor:start;fill:#1a1a1a"
         id="path5478" />
      <path
         d="m 665.78141,635.78615 0,10.1558 q 0,3.32117 -2.39474,5.64599 -2.37726,2.32482 -5.73339,2.32482 -1.66059,0 -3.1289,-0.57683 -1.45083,-0.59432 -2.62198,-1.73051 -1.15367,-1.13619 -1.80042,-2.35978 -0.64676,-1.24107 -0.64676,-3.30369 l 0,-10.1558 q -1.13619,0 -1.67806,-0.50692 -0.54188,-0.50691 -0.54188,-1.29351 0,-0.80407 0.54188,-1.29351 0.54187,-0.48943 1.85286,-0.48943 l 4.70208,-0.0175 q 1.29351,0 1.83539,0.50691 0.55935,0.48944 0.55935,1.29351 0,0.80408 -0.55935,1.31099 -0.54188,0.48944 -1.83539,0.48944 l -1.29351,0 0,10.47043 q 0,1.60815 1.32847,2.84922 1.34595,1.22359 3.23378,1.22359 1.25855,0 2.35978,-0.59431 1.10123,-0.59432 1.80042,-1.73051 0.437,-0.71667 0.437,-1.74799 l 0,-10.47043 -1.29351,0 q -1.29351,0 -1.85286,-0.48944 -0.54188,-0.50691 -0.54188,-1.31099 0,-0.80407 0.54188,-1.29351 0.55935,-0.50691 1.85286,-0.50691 l 4.70208,0.0175 q 1.29351,0 1.83539,0.48943 0.55935,0.48944 0.55935,1.29351 0,0.7866 -0.54187,1.29351 -0.54188,0.50692 -1.67807,0.50692 z"
         style="font-style:normal;font-variant:normal;font-weight:bold;font-stretch:normal;font-size:35.79875183px;font-family:'Courier New';-inkscape-font-specification:'Courier New Bold';text-align:start;text-anchor:start;fill:#1a1a1a"
         id="path5480" />
      <path
         d="m 676.986,646.11675 0,3.68825 3.61834,0 q 1.2935,0 1.83538,0.50691 0.55936,0.48944 0.55936,1.29351 0,0.78659 -0.55936,1.29351 -0.54188,0.48944 -1.83538,0.48944 l -7.76106,0 q -1.29351,0 -1.85287,-0.48944 -0.54187,-0.50692 -0.54187,-1.31099 0,-0.78659 0.55935,-1.27603 0.55936,-0.50691 1.83539,-0.50691 l 0.55935,0 0,-14.01885 -0.55935,0 q -1.29351,0 -1.85287,-0.48944 -0.54187,-0.50691 -0.54187,-1.31099 0,-0.80407 0.54187,-1.29351 0.55936,-0.50691 1.85287,-0.50691 l 8.25049,0.0175 q 3.63581,0 5.75088,1.9927 2.13254,1.97523 2.13254,4.82444 0,1.57319 -0.71668,2.97158 -0.54187,1.04879 -1.8179,2.0801 -1.25855,1.01383 -2.58702,1.53823 -1.31099,0.50692 -3.47849,0.50692 l -3.3911,0 z m 0,-3.58338 3.32118,0 q 2.3423,0 3.70573,-1.04879 1.38091,-1.06627 1.38091,-2.55206 0,-1.25855 -1.11871,-2.20246 -1.10124,-0.94391 -3.16386,-0.94391 l -4.12525,0 0,6.74722 z"
         style="font-style:normal;font-variant:normal;font-weight:bold;font-stretch:normal;font-size:35.79875183px;font-family:'Courier New';-inkscape-font-specification:'Courier New Bold';text-align:start;text-anchor:start;fill:#1a1a1a"
         id="path5482" />
    </g>
  </g>
</svg>
