<?xml version="1.0" encoding="UTF-8" standalone="no"?>
<!-- Created with Inkscape (http://www.inkscape.org/) -->

<svg
   xmlns:dc="http://purl.org/dc/elements/1.1/"
   xmlns:cc="http://creativecommons.org/ns#"
   xmlns:rdf="http://www.w3.org/1999/02/22-rdf-syntax-ns#"
   xmlns:svg="http://www.w3.org/2000/svg"
   xmlns="http://www.w3.org/2000/svg"
   xmlns:sodipodi="http://sodipodi.sourceforge.net/DTD/sodipodi-0.dtd"
   xmlns:inkscape="http://www.inkscape.org/namespaces/inkscape"
   width="210mm"
   height="297mm"
   viewBox="0 0 744.09448819 1052.3622047"
   id="svg4217"
   version="1.1"
   inkscape:version="0.91 r13725"
   sodipodi:docname="Swecha_logo.svg">
  <defs
     id="defs4219">
    <clipPath
       clipPathUnits="userSpaceOnUse"
       id="clipPath6036">
      <rect
         style="opacity:1;fill:#1a1a1a;fill-opacity:1;stroke:none;stroke-width:2.0999999;stroke-linecap:butt;stroke-linejoin:miter;stroke-miterlimit:4;stroke-dasharray:none;stroke-dashoffset:0;stroke-opacity:1"
         id="rect6038"
         width="94.576401"
         height="101.58207"
         x="-810.56927"
         y="627.08948" />
    </clipPath>
  </defs>
  <sodipodi:namedview
     id="base"
     pagecolor="#ffffff"
     bordercolor="#666666"
     borderopacity="1.0"
     inkscape:pageopacity="0.0"
     inkscape:pageshadow="2"
     inkscape:zoom="0.52488385"
     inkscape:cx="178.52988"
     inkscape:cy="476.78799"
     inkscape:document-units="px"
     inkscape:current-layer="layer1"
     showgrid="false"
     inkscape:window-width="1301"
     inkscape:window-height="744"
     inkscape:window-x="65"
     inkscape:window-y="24"
     inkscape:window-maximized="1" />
  <metadata
     id="metadata4222">
    <rdf:RDF>
      <cc:Work
         rdf:about="">
        <dc:format>image/svg+xml</dc:format>
        <dc:type
           rdf:resource="http://purl.org/dc/dcmitype/StillImage" />
        <dc:title></dc:title>
      </cc:Work>
    </rdf:RDF>
  </metadata>
  <g
     inkscape:label="Layer 1"
     inkscape:groupmode="layer"
     id="layer1">
    <g
       transform="matrix(5.0770362,0,0,-5.0770363,-2201.9755,3382.5836)"
       id="g5241">
      <g
         id="g5176"
         transform="matrix(0.96284208,0,0,0.96284208,9.84084,13.203188)" />
      <g
         id="g6208"
         transform="matrix(0.30650344,0,0,0.30650344,469.70695,490.38475)">
        <g
           id="g3398">
          <g
             id="g3413"
             transform="translate(80.804419,-31.832043)">
            <g
               id="g3558">
              <path
                 d="m 25.583105,458.76284 c 3.927413,5.94799 20.884727,13.7683 28.038375,17.40967 1.465,0.76534 4.057877,0.58793 5.033591,-0.66208 2.951734,-3.73404 4.087819,-4.7086 6.805847,-4.2425 2.886442,0.48728 3.397425,2.53438 13.962033,7.82031 3.046884,1.52275 5.593568,1.17053 8.716527,-0.2066 2.345636,-1.01429 4.172068,-4.56031 19.789422,-6.38231 4.74553,-0.5588 -8.906741,-2.9687 -17.922242,-1.08579 -9.012725,1.87233 -8.577829,4.12599 -13.239064,2.69859 -4.672197,-1.43801 -4.343317,-8.27582 -10.148894,-11.12006 -5.808234,-2.84422 -10.108074,6.20753 -13.081445,6.76632 -6.009448,1.13875 -25.426529,-11.87481 -27.95415,-10.99559 z"
                 style="fill:#000000;fill-opacity:1;fill-rule:nonzero;stroke:none;stroke-width:3.02362204"
                 id="path288"
                 inkscape:connector-curvature="0" />
              <path
                 d="m 45.671446,447.3091 c 3.894825,5.49515 21.159275,12.49715 28.432534,15.76511 1.473115,0.70443 4.139409,0.47664 5.180439,-0.6912 3.10927,-3.54867 4.299805,-4.48086 7.08023,-4.09687 2.962564,0.4131 3.451839,2.30664 14.184991,7.06557 3.10116,1.36384 5.72129,0.9931 8.97199,-0.34165 2.41891,-1.00368 4.38402,-4.34578 20.46887,-6.3214 4.895,-0.59849 -9.07797,-2.62707 -18.38967,-0.70178 -9.29813,1.91204 -8.90671,4.0121 -13.674008,2.75154 -4.756445,-1.25264 -4.27806,-7.64554 -10.181456,-10.20111 -5.903397,-2.56615 -10.521215,5.96918 -13.589724,6.55975 -6.210544,1.15729 -25.872197,-10.65661 -28.484196,-9.78798 z"
                 style="fill:#000000;fill-opacity:1;fill-rule:nonzero;stroke:none;stroke-width:3.02362204"
                 id="path290"
                 inkscape:connector-curvature="0" />
              <text
                 sodipodi:linespacing="0%"
                 y="-381.00507"
                 x="-139.12126"
                 transform="scale(0.99836308,-1.0016396)"
                 style="font-variant:normal;font-weight:normal;font-size:43.04177856px;line-height:0%;font-family:'Alex Brush';-inkscape-font-specification:AlexBrush-Regular;writing-mode:lr-tb;fill:#000000;fill-opacity:1;fill-rule:nonzero;stroke:none;stroke-width:3.02362204"
                 id="text292">
                <tspan
                   x="-139.12126 -48.524925 5.8571687 36.984394 71.260643 116.80119"
                   y="-381.00507"
                   sodipodi:role="line"
                   id="tspan294"
                   style="font-size:121.11803436px;line-height:1.25;fill:#000000;fill-opacity:1;stroke-width:3.02362204">Swecha</tspan>
              </text>
            </g>
          </g>
        </g>
      </g>
    </g>
  </g>
</svg>
